/* XPM */
static char *mainicon[] = {
/* width height num_colors chars_per_pixel */
"    49    49        3            1",
/* colors */
". c #0000ff",
"# c #ff0000",
"a c #ffffff",
/* pixels */
"aaaaaaaaaaaaaaaaaaaaaaaaaaaaaaaaaaaaaaaaaaaaaaaaa",
"aaaaaaaaaaaaaaaaaaaaaaaaaaaaaaaaaaaaaaaaaaaaaaaaa",
"aaaaaaaaaaaaaaaaaaaaaaaaaaaaaaaaaaaaaaaaaaaaaaaaa",
"aaaaaaaaaaaaaaaaaaaaaaaaaaaaaaaaaaaaaaaaaaaaaaaaa",
"aaaaaaaaaaaaaaaaaaaaaaaaaaaaaaaaaaaaaaaaaaaaaaaaa",
"aaaaaaaaaaaaaaaaaaaaaaaaaaaaaaaaaaaaaaaaaaaaaaaaa",
"aaaaaaaaaaaaaaaaaaaaaaaaaaaaaaaaaaaaaaaaaaaaaaaaa",
"aaaaaaaaaaaaaaaaaaaaaaaaaaaaaaaaaaaaaaaaaaaaaaaaa",
"aaaaaaaaaaaaaaaaaaaaaaaaaaaaaaaaaaaaaaaaaaaaaaaaa",
"aaaaaaaaaaaaaaaaaaaaaaaaaaaaaaaaaaaaaaaaaaaaaaaaa",
"aaaa#####aaaaaaaaaaaaaaaaaaaaaaaaaaaaaaaaaaa..aaa",
"aaaa##########aaaaaaaaaaaaaaaaaaaaaaaaaa......aaa",
"aaaa#############aaaaaaaaaaaaaaaaaaaa........aaaa",
"aaaa###############aaaaaaaaaaaaaaaa..........aaaa",
"aaaa################aaaaaaaaaaaaaa....a.aaaa..aaa",
"aaaa##################aaaaaaaaaa....aaa.aaaaa.aaa",
"aaaa####################aaaaaaa..a..aaa.aaaaa.aaa",
"aaaa####a################aaaaa..aaa..aa.aaaaa.aaa",
"aaaa###..a################aaa..aaaa..aa.aaaa..aaa",
"aaaa###..a#################a.a.aaaaa.aa...aa.aaaa",
"aaaa###..a###############a#..a.aaaaa.aa......aaaa",
"aaaa###...###############a#.aa.aaaaa.aa.a....aaaa",
"aaaaaa....aaa############aa.aa.aaaaa.aa.aaa..aaaa",
"aaaaaa....aaa....a##a....aa.aa.aaaaa.aa.aaaa.aaaa",
"aaaaaa....aaa....a#a..a..aa#aa.aaaa..aa.aaaa.aaaa",
"aaaaaa..a.aaa.aa..aa.aa..a.#aa..aaa..aa.aaaa.aaaa",
"aaaaaa.aa..a..aaa.a..a.a.a.##aaa.....aa..aa..aaaa",
"aaaaaa.aa..a.aaaaaa...aa...a###aa#..#aa.....aaaaa",
"aaaaa..a...a.aaaaaa..aa...aaa########aa.a...#aaaa",
"aaaaa......a.aaaa.aa.a...aaaaa#######aa#aa###aaaa",
"aaaaa...aa.a..aa..aaa...aaaaaaa######aa######aaaa",
"aaaaa..aaa....aa.aa...aaaaaaaaaa#####aa######aaaa",
"aaaaa.aaaa..........aaaaaaaaaaaaaa####a######aaaa",
"aaaa..aaaa..a......aaaaaaaaaaaaaaaa##########aaaa",
"aaaa..aa.........aaaaaaaaaaaaaaaaaaaa########aaaa",
"aaaa..........aaaaaaaaaaaaaaaaaaaaaaaaaa######aaa",
"aaaa.....aaaaaaaaaaaaaaaaaaaaaaaaaaaaaaaaaaa##aaa",
"aaaaaaaaaaaaaaaaaaaaaaaaaaaaaaaaaaaaaaaaaaaaaaaaa",
"aaaaaaaaaaaaaaaaaaaaaaaaaaaaaaaaaaaaaaaaaaaaaaaaa",
"aaaaaaaaaaaaaaaaaaaaaaaaaaaaaaaaaaaaaaaaaaaaaaaaa",
"aaaaaaaaaaaaaaaaaaaaaaaaaaaaaaaaaaaaaaaaaaaaaaaaa",
"aaaaaaaaaaaaaaaaaaaaaaaaaaaaaaaaaaaaaaaaaaaaaaaaa",
"aaaaaaaaaaaaaaaaaaaaaaaaaaaaaaaaaaaaaaaaaaaaaaaaa",
"aaaaaaaaaaaaaaaaaaaaaaaaaaaaaaaaaaaaaaaaaaaaaaaaa",
"aaaaaaaaaaaaaaaaaaaaaaaaaaaaaaaaaaaaaaaaaaaaaaaaa",
"aaaaaaaaaaaaaaaaaaaaaaaaaaaaaaaaaaaaaaaaaaaaaaaaa",
"aaaaaaaaaaaaaaaaaaaaaaaaaaaaaaaaaaaaaaaaaaaaaaaaa",
"aaaaaaaaaaaaaaaaaaaaaaaaaaaaaaaaaaaaaaaaaaaaaaaaa",
"aaaaaaaaaaaaaaaaaaaaaaaaaaaaaaaaaaaaaaaaaaaaaaaaa"
};
